<svg width="40" height="40" viewBox="0 0 40 40" fill="none" xmlns="http://www.w3.org/2000/svg">
<path d="M18.3333 36.3751C14.6111 35.9029 11.5 34.2917 9 31.5417C6.5 28.7917 5.25 25.5279 5.25 21.7501C5.25 19.8334 5.61111 17.9931 6.33333 16.2292C7.05556 14.4654 8.08333 12.8751 9.41667 11.4584L13.1667 15.1667C12.3056 16.0556 11.6458 17.0626 11.1875 18.1876C10.7292 19.3126 10.5 20.5001 10.5 21.7501C10.5 24.0834 11.2361 26.1251 12.7083 27.8751C14.1806 29.6251 16.0556 30.6945 18.3333 31.0834V36.3751ZM21.6667 36.3751V31.0834C23.9444 30.6945 25.8194 29.6181 27.2917 27.8542C28.7639 26.0904 29.5 24.0556 29.5 21.7501C29.5 19.2779 28.6736 17.139 27.0208 15.3334C25.3681 13.5279 23.3194 12.514 20.875 12.2917H20.5833L22.6667 14.3751L19.875 17.1667L12.0833 9.37508L19.875 1.54175L22.6667 4.33341L20 7.00008H20.3333C24.3611 7.00008 27.7708 8.44453 30.5625 11.3334C33.3542 14.2223 34.75 17.6945 34.75 21.7501C34.75 25.5001 33.5 28.757 31 31.5209C28.5 34.2848 25.3889 35.9029 21.6667 36.3751Z" fill="#6C757D"/>
</svg>
